<svg version="1.1" viewBox="0.0 0.0 729.9317585301837 581.9475065616798" fill="none" stroke="none" stroke-linecap="square" stroke-miterlimit="10" xmlns:xlink="http://www.w3.org/1999/xlink" xmlns="http://www.w3.org/2000/svg"><clipPath id="p.0"><path d="m0 0l729.93176 0l0 581.9475l-729.93176 0l0 -581.9475z" clip-rule="nonzero"/></clipPath><g clip-path="url(#p.0)"><path fill="#000000" fill-opacity="0.0" d="m0 0l729.93176 0l0 581.9475l-729.93176 0z" fill-rule="evenodd"/><path fill="#000000" d="m0.0131233595 43.766403l0 0c0 -24.174416 19.597239 -43.771652 43.771656 -43.771652l642.25195 0c11.608948 0 22.742432 4.6116433 30.951233 12.82042c8.208801 8.208777 12.820435 19.34227 12.820435 30.951233l0 29.181107l0 0c0 24.174416 -19.597229 43.771652 -43.771667 43.771652l-642.25195 0c-24.174417 0 -43.771656 -19.597237 -43.771656 -43.771652z" fill-rule="evenodd"/><path fill="#000000" d="m0.0131233595 275.96063l0 0c0 -24.174423 19.597239 -43.771652 43.771656 -43.771652l642.25195 0c11.608948 0 22.742432 4.6116333 30.951233 12.820419c8.208801 8.208771 12.820435 19.342255 12.820435 30.951233l0 29.181091l0 0c0 24.174438 -19.597229 43.771667 -43.771667 43.771667l-642.25195 0c-24.174417 0 -43.771656 -19.597229 -43.771656 -43.771667z" fill-rule="evenodd"/><path fill="#000000" d="m0.0131233595 508.1601l0 0c0 -24.174408 19.597239 -43.771637 43.771656 -43.771637l642.25195 0c11.608948 0 22.742432 4.6116333 30.951233 12.820404c8.208801 8.208801 12.820435 19.342285 12.820435 30.951233l0 29.181091l0 0c0 24.174438 -19.597229 43.771667 -43.771667 43.771667l-642.25195 0c-24.174417 0 -43.771656 -19.597229 -43.771656 -43.771667z" fill-rule="evenodd"/></g></svg>