<?xml version="1.0" encoding="utf-8"?>
<!-- Generator: Adobe Illustrator 20.1.0, SVG Export Plug-In . SVG Version: 6.00 Build 0)  -->
<!DOCTYPE svg PUBLIC "-//W3C//DTD SVG 1.1//EN" "http://www.w3.org/Graphics/SVG/1.1/DTD/svg11.dtd">
<svg version="1.1" id="Layer_3" xmlns="http://www.w3.org/2000/svg" xmlns:xlink="http://www.w3.org/1999/xlink" x="0px" y="0px"
	 viewBox="0 0 265 44.9" style="enable-background:new 0 0 265 44.9;" xml:space="preserve">
<style type="text/css">
	.st0{fill:#A93439;}
	.st1{fill:#6D6E71;}
</style>
<g>
	<g>
		<g>
			<path d="M44.9,33.3v3.6c0,0.3,0,0.4,0.1,0.5c0,0.1,0.2,0.1,0.5,0.1h1.4c0.6,0,1.1,0,1.5-0.1c0.3-0.1,0.5-0.1,0.6-0.3
				c0.1-0.1,0.2-0.4,0.3-0.7c0-0.1,0.1-0.2,0.2-0.2c0.1,0,0.2,0.1,0.2,0.2c0,0,0,0.1,0,0.2c-0.1,0.6-0.1,1.1-0.1,1.6
				c0,0.4,0,0.7,0.1,1.1c0,0.1,0,0.2,0,0.3c0,0.1-0.1,0.2-0.2,0.2c-0.1,0-0.2-0.1-0.2-0.2L49,39.2c-0.1-0.4-0.2-0.7-0.4-0.8
				c-0.2-0.1-0.6-0.2-1.1-0.2h-1.9c-0.3,0-0.5,0-0.6,0.1c-0.1,0.1-0.1,0.2-0.1,0.4l0,0.3v3.2c0,0.5,0.1,0.8,0.3,0.9
				c0.2,0.1,0.6,0.2,1.4,0.2c2.3,0,3.8-0.5,4.4-1.6c0.1-0.1,0.1-0.2,0.2-0.2c0.1,0,0.2,0.1,0.2,0.2c0,0.4-0.2,0.8-0.6,1.4
				c-0.5,0.6-1.2,0.9-2,0.9c-0.2,0-0.4,0-0.7,0C46.9,44,46,44,45.2,44c-1,0-1.8,0-2.2,0.1c-0.2,0-0.4,0.1-0.5,0.1
				c-0.2,0-0.3-0.1-0.3-0.2c0-0.1,0.1-0.2,0.2-0.2l0.3-0.1c0.4-0.1,0.6-0.5,0.6-1.2l0-0.6v-7.5c0-0.8-0.1-1.4-0.3-1.7
				c-0.2-0.3-0.5-0.4-1.1-0.4c-0.2,0-0.3-0.1-0.3-0.2c0-0.2,0.1-0.2,0.4-0.2c0.1,0,0.3,0,0.6,0c0.8,0.1,1.8,0.1,3,0.1
				c0.7,0,1.4,0,1.9,0l1.3-0.1c0.3,0,0.6,0,0.6,0c0.2,0,0.3,0,0.4,0c0.2,0,0.3,0.1,0.3,0.3c0,0.1,0,0.1,0,0.2c0,0.1,0,0.3-0.1,0.7
				l0,0.5c0,0.3-0.1,0.6-0.1,0.6c0,0.1-0.1,0.1-0.2,0.1c-0.1,0-0.2-0.1-0.2-0.3v-0.2c0-0.2,0-0.4-0.1-0.5c-0.1-0.3-0.3-0.4-0.7-0.5
				c-0.3-0.1-1-0.1-1.9-0.1h-1.4c-0.4,0-0.6,0-0.7,0.1C44.9,32.8,44.9,33,44.9,33.3z"/>
			<path d="M53.4,37c0-0.4-0.1-0.7-0.2-0.9c-0.1-0.2-0.4-0.3-0.7-0.3c-0.1,0-0.2-0.1-0.2-0.1c0-0.1,0.1-0.1,0.2-0.1l0.5,0
				c0,0,0.2,0,0.4,0c0.4,0,0.7,0,1,0l0.6-0.1c0.2,0,0.5,0,0.8,0c1.7,0,2.9,0.4,3.8,1.3c0.8,0.8,1.2,1.8,1.2,3c0,0.8-0.2,1.5-0.5,2.1
				c-0.3,0.6-0.8,1.2-1.4,1.5c-0.8,0.5-1.6,0.7-2.5,0.7c-0.1,0-0.3,0-0.6,0c-0.6,0-1-0.1-1.4-0.1c-0.4,0-0.8,0-1.1,0.1
				c-0.1,0-0.3,0-0.4,0c-0.1,0-0.2,0-0.2-0.1c0-0.1,0.1-0.1,0.2-0.1c0.3-0.1,0.5-0.2,0.5-0.3c0.1-0.1,0.1-0.5,0.1-0.9L53.4,37
				L53.4,37z M54.3,36.5v6.3c0,0.3,0.1,0.4,0.4,0.5c0.2,0.1,0.5,0.2,0.8,0.2c0.3,0.1,0.6,0.1,0.9,0.1c0.7,0,1.3-0.2,1.9-0.5
				c1-0.6,1.4-1.6,1.4-3c0-0.8-0.1-1.5-0.4-2.1c-0.3-0.6-0.7-1.2-1.2-1.5c-0.6-0.5-1.4-0.7-2.3-0.7c-0.6,0-1.1,0.1-1.2,0.2
				C54.4,36.1,54.3,36.3,54.3,36.5z"/>
			<path d="M69.2,40.4v-3.2c0-0.5-0.1-0.9-0.2-1.1c-0.1-0.2-0.4-0.4-0.8-0.4c-0.1,0-0.2-0.1-0.2-0.1c0-0.1,0-0.1,0.1-0.1
				c0.1,0,0.2,0,0.4,0c0.2,0,0.3,0,0.6,0c0.5,0,0.7,0,0.8,0c0.1,0,0.2,0,0.3,0c0.1,0,0.1,0,0.1,0.1c0,0.1,0,0.1-0.1,0.1
				c-0.3,0.1-0.4,0.2-0.5,0.4c-0.1,0.2-0.1,0.5-0.1,1v3.1c0,1.1-0.2,2-0.7,2.6c-0.3,0.4-0.7,0.7-1.2,0.9c-0.5,0.2-1.1,0.3-1.7,0.3
				c-0.7,0-1.3-0.1-1.9-0.4c-0.6-0.3-1-0.6-1.2-1.1c-0.3-0.5-0.4-1.2-0.4-2.1v-3.1l0-0.4c0-0.4-0.1-0.7-0.2-0.9
				c-0.1-0.2-0.4-0.3-0.7-0.3c-0.1,0-0.2-0.1-0.2-0.1c0-0.1,0.1-0.1,0.2-0.1c0.1,0,0.2,0,0.4,0c0.2,0,0.3,0,0.4,0l0.5,0h0.5
				c0,0,0.2,0,0.3,0c0.2,0,0.3,0,0.3,0c0.1,0,0.1,0,0.1,0.1c0,0.1-0.1,0.1-0.2,0.2c-0.2,0.1-0.4,0.2-0.5,0.3
				c-0.1,0.2-0.1,0.4-0.1,0.8l0,0.4v3.1c0,1.1,0.2,1.8,0.5,2.3c0.5,0.6,1.2,1,2.3,1c1,0,1.7-0.3,2.2-0.8
				C69,42.3,69.2,41.5,69.2,40.4z"/>
			<path d="M79.1,36.3l0.2,1.5l0,0.2l0,0.1c0,0-0.1,0.1-0.1,0.1c0,0-0.1-0.1-0.2-0.3c-0.8-1.3-1.8-2-3.1-2c-1,0-1.9,0.3-2.5,1
				c-0.6,0.6-0.9,1.5-0.9,2.6c0,1.3,0.3,2.3,1,3.1c0.7,0.8,1.5,1.2,2.6,1.2c0.6,0,1.2-0.2,1.8-0.5c0.6-0.3,1-0.7,1.2-1.2
				c0.1-0.2,0.2-0.3,0.2-0.3c0.1,0,0.1,0,0.1,0.1l0,0.1l0,0.1l-0.1,0.8l0,0.1c0,0.1-0.1,0.2-0.3,0.3c-0.9,0.6-2,0.9-3.1,0.9
				c-1.3,0-2.4-0.4-3.2-1.2c-0.8-0.8-1.2-1.8-1.2-3.1s0.4-2.3,1.3-3.2c0.8-0.8,1.9-1.3,3.2-1.3c0.9,0,1.7,0.2,2.4,0.6l0.2,0.1l0.1,0
				l0.1,0c0,0,0.1,0,0.1,0c0.1-0.1,0.2-0.1,0.2-0.1C79.1,36.1,79.1,36.1,79.1,36.3z"/>
			<path d="M85,40.8h-2.2c-0.3,0-0.5,0-0.6,0.1c-0.1,0-0.2,0.2-0.3,0.5l-0.4,0.9c-0.2,0.4-0.3,0.7-0.3,0.9c0,0.2,0,0.3,0.1,0.4
				c0.1,0.1,0.3,0.2,0.6,0.2c0.1,0,0.2,0.1,0.2,0.1c0,0.1-0.1,0.1-0.2,0.1c0,0-0.1,0-0.2,0l-0.6,0c-0.2,0-0.4,0-0.7,0
				c-0.1,0-0.2,0-0.3,0c-0.2,0-0.3,0-0.3,0c-0.1,0-0.2,0-0.2-0.1c0-0.1,0-0.1,0.1-0.1l0.2-0.1c0.1,0,0.2-0.1,0.3-0.3
				c0.1-0.2,0.3-0.4,0.3-0.5l0.2-0.4l3.2-7c0.1-0.1,0.1-0.2,0.2-0.2c0.1,0,0.1,0.1,0.2,0.2l2.7,6.8l0.1,0.3c0.2,0.5,0.4,0.8,0.5,0.9
				c0.1,0.1,0.4,0.2,0.8,0.3c0.1,0,0.2,0.1,0.2,0.2c0,0.1-0.1,0.1-0.2,0.1c0,0-0.1,0-0.2,0c-0.2,0-0.6,0-1.1,0c-0.6,0-0.9,0-1.1,0
				c-0.1,0-0.2,0-0.2,0c-0.1,0-0.2,0-0.2-0.1c0-0.1,0.1-0.1,0.2-0.1l0.2,0c0.2,0,0.3-0.2,0.3-0.4c0-0.2-0.1-0.7-0.4-1.3l-0.3-0.8
				c-0.1-0.2-0.2-0.4-0.2-0.4C85.3,40.8,85.2,40.8,85,40.8z M85,39.8l-1-2.4l0-0.1c0-0.1-0.1-0.2-0.2-0.2c0,0-0.1,0-0.1,0.1
				l-1.2,2.7c-0.1,0.1-0.1,0.2-0.1,0.2c0,0.1,0.1,0.2,0.3,0.2l0.2,0h1.9c0.2,0,0.3-0.1,0.3-0.2c0,0,0-0.1,0-0.1L85,39.8z"/>
			<path d="M94.3,36.2h-1.7c-0.2,0-0.3,0-0.3,0.1c0,0-0.1,0.2-0.1,0.4v6.1l0,0.2c0,0.5,0.3,0.8,0.8,0.9c0.1,0,0.2,0.1,0.2,0.1
				c0,0.1-0.1,0.1-0.2,0.1c0,0-0.2,0-0.3,0c-0.1,0-0.3,0-0.6,0l-0.5,0l-0.5,0c-0.2,0-0.3,0-0.4,0c-0.2,0-0.4,0-0.4,0
				c-0.1,0-0.2,0-0.2-0.1c0-0.1,0.1-0.1,0.2-0.1c0.3,0,0.5-0.1,0.6-0.3c0.1-0.1,0.2-0.4,0.2-0.7v-6.1l0-0.2c0-0.1,0-0.2-0.1-0.3
				c0,0-0.1-0.1-0.3-0.1h-1.6c-0.3,0-0.6,0.1-0.7,0.2c-0.2,0.1-0.3,0.4-0.3,0.8c0,0.2-0.1,0.2-0.2,0.2c-0.1,0-0.1-0.1-0.1-0.2
				c0-0.1,0-0.2,0.1-0.5c0.1-0.3,0.1-0.5,0.1-0.7c0-0.2,0-0.3,0.1-0.4c0-0.1,0.1-0.1,0.3-0.1h6.6c0.2,0,0.4,0,0.4,0.1
				c0,0,0.1,0.2,0.1,0.4c0,0.2,0,0.4,0,0.5c0,0.1,0,0.2,0,0.3c0,0.1,0,0.2-0.1,0.2c-0.1,0-0.1-0.1-0.1-0.2c-0.1-0.3-0.1-0.5-0.3-0.6
				C94.8,36.3,94.6,36.2,94.3,36.2z"/>
			<path d="M98,37.4V42c0,0.6,0,1,0.1,1.1c0.1,0.2,0.2,0.4,0.3,0.4c0.1,0.1,0.3,0.1,0.6,0.2c0.2,0,0.3,0.1,0.3,0.2
				c0,0.1-0.1,0.1-0.2,0.1c-0.1,0-0.1,0-0.2,0c-0.1,0-0.3,0-0.7,0l-0.9,0l-0.7,0c-0.1,0-0.2,0-0.3,0c-0.1,0-0.2,0-0.2-0.1
				c0-0.1,0.1-0.1,0.2-0.1c0.3-0.1,0.5-0.2,0.6-0.3c0.1-0.2,0.1-0.5,0.1-1v-5.3c0-0.5-0.1-0.9-0.2-1c-0.1-0.2-0.4-0.3-0.7-0.4
				c-0.1,0-0.2-0.1-0.2-0.1c0-0.1,0.1-0.1,0.2-0.1c0,0,0.1,0,0.1,0c0.3,0,0.7,0.1,1.2,0.1c0.3,0,0.6,0,0.8,0l0.4,0
				c0.1,0,0.1,0,0.2,0c0.1,0,0.2,0,0.2,0.1c0,0.1-0.1,0.1-0.2,0.2l-0.3,0.1C98.2,36,98,36.5,98,37.4z"/>
			<path d="M104.6,35.4c1.3,0,2.3,0.4,3.2,1.2s1.2,1.8,1.2,3.1c0,1.3-0.4,2.4-1.2,3.2c-0.8,0.8-1.9,1.3-3.2,1.3
				c-1.3,0-2.4-0.4-3.2-1.2c-0.8-0.8-1.2-1.9-1.2-3.2c0-0.6,0.1-1.1,0.3-1.7c0.2-0.6,0.5-1,0.9-1.4c0.4-0.4,0.9-0.7,1.5-0.9
				C103.4,35.5,104,35.4,104.6,35.4z M104.2,35.8c-1,0-1.7,0.3-2.3,1c-0.6,0.6-0.8,1.5-0.8,2.6c0,1.2,0.4,2.3,1.1,3.1
				c0.7,0.9,1.6,1.3,2.6,1.3c1,0,1.7-0.3,2.4-1c0.6-0.7,0.9-1.6,0.9-2.6c0-1.2-0.4-2.3-1.1-3.1C106.2,36.2,105.3,35.8,104.2,35.8z"
				/>
			<path d="M117.5,37.9v5.2c0,0.5,0,0.7,0,0.8c0,0.1-0.1,0.1-0.2,0.1c-0.1,0-0.1,0-0.1-0.1l-0.1-0.2l-5.2-5.9l-0.1-0.1
				c0,0-0.1,0-0.1,0c-0.1,0-0.1,0.1-0.1,0.3v4.2l0,0.3l0,0.4c0,0.3,0.1,0.5,0.2,0.6c0.1,0.1,0.3,0.2,0.7,0.2c0.1,0,0.2,0.1,0.2,0.2
				c0,0.1,0,0.1-0.1,0.1c-0.1,0-0.1,0-0.2,0c0,0-0.2,0-0.5,0l-0.6,0l-0.3,0c-0.2,0-0.3,0-0.5,0c-0.1,0-0.2,0-0.2,0
				c-0.1,0-0.2,0-0.2-0.1c0-0.1,0.1-0.1,0.2-0.2c0.3-0.1,0.6-0.3,0.7-0.5c0.1-0.2,0.2-0.5,0.2-1v-4.2c0-0.7-0.1-1.3-0.3-1.7
				s-0.6-0.6-1-0.7c-0.1,0-0.2-0.1-0.2-0.1c0-0.1,0-0.1,0.1-0.1c0,0,0.1,0,0.1,0l0.3,0l0.4,0l0.1,0c0.1,0,0.2,0,0.2,0
				c0.1,0,0.2,0.1,0.3,0.2l5.7,6.4c0.1,0.1,0.1,0.2,0.2,0.1c0,0,0.1,0,0.1-0.1v-3.1l0-0.8l-0.1-1.4c0-0.3-0.1-0.6-0.3-0.7
				c-0.2-0.1-0.5-0.3-0.9-0.3c-0.1,0-0.2-0.1-0.2-0.2c0-0.1,0.1-0.1,0.2-0.1c0.1,0,0.1,0,0.3,0c0.3,0,0.7,0,1.1,0c0.3,0,0.5,0,0.6,0
				c0.1,0,0.2,0,0.3,0c0.1,0,0.2,0,0.2,0.1c0,0.1,0,0.1-0.1,0.1c-0.3,0.1-0.4,0.2-0.5,0.3c-0.1,0.1-0.1,0.4-0.1,0.8v0.7L117.5,37.9z
				"/>
			<path d="M123.9,40.8h-2.2c-0.3,0-0.5,0-0.6,0.1s-0.2,0.2-0.3,0.5l-0.4,0.9c-0.2,0.4-0.3,0.7-0.3,0.9c0,0.2,0,0.3,0.1,0.4
				c0.1,0.1,0.3,0.2,0.6,0.2c0.1,0,0.2,0.1,0.2,0.1c0,0.1-0.1,0.1-0.2,0.1c0,0-0.1,0-0.2,0l-0.6,0c-0.2,0-0.4,0-0.7,0
				c-0.1,0-0.2,0-0.3,0c-0.2,0-0.3,0-0.3,0c-0.1,0-0.2,0-0.2-0.1c0-0.1,0-0.1,0.1-0.1l0.2-0.1c0.1,0,0.2-0.1,0.3-0.3
				s0.3-0.4,0.3-0.5l0.2-0.4l3.2-7c0.1-0.1,0.1-0.2,0.2-0.2c0.1,0,0.1,0.1,0.2,0.2l2.7,6.8l0.1,0.3c0.2,0.5,0.4,0.8,0.5,0.9
				c0.1,0.1,0.4,0.2,0.8,0.3c0.1,0,0.2,0.1,0.2,0.2c0,0.1-0.1,0.1-0.2,0.1c0,0-0.1,0-0.2,0c-0.2,0-0.6,0-1.1,0c-0.6,0-0.9,0-1.1,0
				c-0.1,0-0.2,0-0.2,0c-0.1,0-0.2,0-0.2-0.1c0-0.1,0.1-0.1,0.2-0.1l0.2,0c0.2,0,0.3-0.2,0.3-0.4c0-0.2-0.1-0.7-0.4-1.3l-0.3-0.8
				c-0.1-0.2-0.2-0.4-0.2-0.4C124.2,40.8,124.1,40.8,123.9,40.8z M123.9,39.8l-1-2.4l0-0.1c0-0.1-0.1-0.2-0.2-0.2c0,0-0.1,0-0.1,0.1
				l-1.2,2.7c-0.1,0.1-0.1,0.2-0.1,0.2c0,0.1,0.1,0.2,0.3,0.2l0.2,0h1.9c0.2,0,0.3-0.1,0.3-0.2c0,0,0-0.1,0-0.1L123.9,39.8z"/>
			<path d="M129.8,42.3l0,0.2c0,0.5,0,0.8,0.1,0.9c0.1,0.1,0.4,0.1,0.9,0.1c0.8,0,1.4-0.1,2-0.3c0.6-0.2,0.9-0.4,1.1-0.7
				c0.1-0.1,0.1-0.2,0.2-0.2c0.1,0,0.1,0,0.1,0.1c0,0.3-0.2,0.6-0.4,0.9c-0.4,0.4-0.9,0.7-1.7,0.7c-0.1,0-0.3,0-0.5,0l-0.7,0
				c-0.4,0-0.8,0-1.2,0c-0.5,0-0.9,0-1.3,0.1c-0.1,0-0.3,0-0.3,0c-0.1,0-0.2,0-0.2-0.1c0-0.1,0.1-0.1,0.2-0.1
				c0.3-0.1,0.5-0.2,0.6-0.4c0.1-0.2,0.1-0.4,0.1-0.8l0-0.3v-5.5c0-0.5-0.2-0.9-0.7-1l-0.3-0.1c-0.1,0-0.1-0.1-0.1-0.1
				c0-0.1,0.1-0.1,0.2-0.1c0.1,0,0.2,0,0.4,0c0.3,0,0.6,0,0.9,0c0.4,0,0.7,0,1,0c0.2,0,0.2,0,0.3,0c0.1,0,0.1,0,0.1,0.1
				c0,0.1-0.1,0.1-0.2,0.2l-0.2,0c-0.4,0.1-0.6,0.5-0.6,1.1L129.8,42.3L129.8,42.3z"/>
			<path d="M150.3,33l0.3,2.1l0,0.2l0,0.1c0,0.1-0.1,0.1-0.1,0.1c-0.1,0-0.2-0.1-0.3-0.4c-1.1-1.9-2.6-2.9-4.5-2.9
				c-1.5,0-2.7,0.5-3.5,1.4c-0.9,0.9-1.3,2.2-1.3,3.8c0,1.8,0.5,3.3,1.4,4.5c1,1.2,2.2,1.7,3.7,1.7c0.9,0,1.7-0.2,2.6-0.7
				c0.9-0.5,1.4-1,1.8-1.7c0.2-0.3,0.3-0.5,0.4-0.5c0.1,0,0.1,0.1,0.1,0.2l0,0.1l0,0.2l-0.2,1.1l0,0.2c0,0.2-0.2,0.3-0.4,0.5
				c-1.4,0.9-2.9,1.3-4.5,1.3c-1.9,0-3.4-0.6-4.6-1.7c-1.2-1.1-1.7-2.6-1.7-4.4c0-1.8,0.6-3.4,1.8-4.6c1.2-1.2,2.7-1.8,4.5-1.8
				c1.2,0,2.4,0.3,3.4,0.8l0.4,0.2l0.1,0.1l0.1,0.1c0,0,0.1,0,0.1-0.1c0.1-0.1,0.2-0.1,0.3-0.1C150.2,32.7,150.3,32.8,150.3,33z"/>
			<path d="M154.5,39.4h3.6c0.2,0,0.3,0,0.3,0c0,0,0.1-0.1,0.1-0.2V37c0-0.4-0.1-0.7-0.2-0.9c-0.1-0.2-0.3-0.3-0.6-0.4
				c-0.1,0-0.2-0.1-0.2-0.1c0-0.1,0.1-0.1,0.2-0.1c0.1,0,0.2,0,0.4,0c0.3,0,0.6,0,0.9,0c0.4,0,0.7,0,0.9,0c0.1,0,0.2,0,0.2,0
				c0.1,0,0.1,0,0.1,0.1c0,0.1,0,0.1-0.1,0.1l-0.3,0.1c-0.1,0-0.2,0.1-0.3,0.3c-0.1,0.2-0.1,0.3-0.1,0.5v6c0,0.4,0.1,0.7,0.2,0.9
				c0.1,0.2,0.4,0.3,0.7,0.3c0.1,0,0.2,0.1,0.2,0.1c0,0.1,0,0.1-0.2,0.1c-0.1,0-0.2,0-0.3,0c-0.1,0-0.3,0-0.6,0l-0.5,0l-0.5,0
				c-0.1,0-0.2,0-0.3,0c-0.3,0-0.4,0-0.4,0c-0.1,0-0.2,0-0.1-0.1c0-0.1,0.1-0.1,0.2-0.1c0.4-0.1,0.6-0.4,0.6-1.1l0-0.2v-2.3
				c0-0.2,0-0.3-0.1-0.3c0,0-0.2,0-0.4,0h-3.6c-0.2,0-0.4,0-0.4,0.1c-0.1,0-0.1,0.2-0.1,0.4v2.3c0,0.4,0.1,0.7,0.2,0.9
				s0.4,0.3,0.8,0.3c0.2,0,0.2,0.1,0.2,0.2c0,0.1-0.1,0.1-0.2,0.1c-0.1,0-0.2,0-0.3,0c-0.1,0-0.4,0-0.7,0l-0.5,0l-0.4,0
				c-0.1,0-0.2,0-0.4,0c-0.2,0-0.3,0-0.4,0c-0.1,0-0.2,0-0.2-0.1c0-0.1,0.1-0.1,0.2-0.1l0.3-0.1c0.2,0,0.3-0.2,0.4-0.4
				c0.1-0.2,0.1-0.6,0.1-1.2v-5.3c0-0.4-0.1-0.6-0.2-0.8s-0.4-0.3-0.7-0.3c-0.1,0-0.2-0.1-0.2-0.1c0-0.1,0.1-0.1,0.2-0.1
				c0.1,0,0.2,0,0.4,0c0.3,0,0.7,0.1,1.1,0.1c0.3,0,0.6,0,0.8,0c0.1,0,0.2,0,0.3,0c0.1,0,0.2,0,0.2,0.1c0,0.1-0.1,0.1-0.2,0.1
				c-0.3,0.1-0.5,0.2-0.6,0.3c-0.1,0.1-0.1,0.3-0.1,0.7v2.2c0,0.2,0,0.4,0.1,0.4C154.1,39.4,154.2,39.4,154.5,39.4z"/>
			<path d="M163.6,37.4V42c0,0.6,0,1,0.1,1.1c0.1,0.2,0.2,0.4,0.3,0.4c0.1,0.1,0.3,0.1,0.6,0.2c0.2,0,0.3,0.1,0.3,0.2
				c0,0.1-0.1,0.1-0.2,0.1c-0.1,0-0.1,0-0.2,0c-0.1,0-0.3,0-0.7,0l-0.9,0l-0.7,0c-0.1,0-0.2,0-0.3,0c-0.1,0-0.2,0-0.2-0.1
				c0-0.1,0.1-0.1,0.2-0.1c0.3-0.1,0.5-0.2,0.6-0.3c0.1-0.2,0.1-0.5,0.1-1v-5.3c0-0.5-0.1-0.9-0.2-1c-0.1-0.2-0.4-0.3-0.7-0.4
				c-0.1,0-0.2-0.1-0.2-0.1c0-0.1,0.1-0.1,0.2-0.1c0,0,0.1,0,0.1,0c0.3,0,0.7,0.1,1.2,0.1c0.3,0,0.6,0,0.8,0l0.4,0
				c0.1,0,0.1,0,0.2,0c0.1,0,0.2,0,0.2,0.1c0,0.1-0.1,0.1-0.2,0.2l-0.3,0.1C163.8,36,163.6,36.5,163.6,37.4z"/>
			<path d="M167.8,42.3l0,0.2c0,0.5,0,0.8,0.1,0.9c0.1,0.1,0.4,0.1,0.9,0.1c0.8,0,1.4-0.1,2-0.3c0.6-0.2,0.9-0.4,1.1-0.7
				c0.1-0.1,0.1-0.2,0.2-0.2c0.1,0,0.1,0,0.1,0.1c0,0.3-0.2,0.6-0.4,0.9c-0.4,0.4-0.9,0.7-1.7,0.7c-0.1,0-0.3,0-0.5,0l-0.7,0
				c-0.4,0-0.8,0-1.2,0c-0.5,0-0.9,0-1.3,0.1c-0.1,0-0.3,0-0.3,0c-0.1,0-0.2,0-0.2-0.1c0-0.1,0.1-0.1,0.2-0.1
				c0.3-0.1,0.5-0.2,0.6-0.4c0.1-0.2,0.1-0.4,0.1-0.8l0-0.3v-5.5c0-0.5-0.2-0.9-0.7-1l-0.3-0.1c-0.1,0-0.1-0.1-0.1-0.1
				c0-0.1,0.1-0.1,0.2-0.1c0.1,0,0.2,0,0.4,0c0.3,0,0.6,0,0.9,0c0.4,0,0.7,0,1,0c0.2,0,0.2,0,0.3,0c0.1,0,0.1,0,0.1,0.1
				c0,0.1-0.1,0.1-0.2,0.2l-0.2,0c-0.4,0.1-0.6,0.5-0.6,1.1L167.8,42.3L167.8,42.3z"/>
			<path d="M173.7,37c0-0.4-0.1-0.7-0.2-0.9c-0.1-0.2-0.4-0.3-0.7-0.3c-0.1,0-0.2-0.1-0.2-0.1c0-0.1,0.1-0.1,0.2-0.1l0.5,0
				c0,0,0.2,0,0.4,0c0.4,0,0.7,0,1,0l0.6-0.1c0.2,0,0.5,0,0.8,0c1.7,0,2.9,0.4,3.8,1.3c0.8,0.8,1.2,1.8,1.2,3c0,0.8-0.2,1.5-0.5,2.1
				c-0.3,0.6-0.8,1.2-1.4,1.5c-0.8,0.5-1.6,0.7-2.5,0.7c-0.1,0-0.3,0-0.6,0c-0.6,0-1-0.1-1.4-0.1c-0.4,0-0.8,0-1.1,0.1
				c-0.1,0-0.3,0-0.4,0c-0.1,0-0.2,0-0.2-0.1c0-0.1,0.1-0.1,0.2-0.1c0.3-0.1,0.5-0.2,0.5-0.3c0.1-0.1,0.1-0.5,0.1-0.9L173.7,37
				L173.7,37z M174.7,36.5v6.3c0,0.3,0.1,0.4,0.4,0.5c0.2,0.1,0.5,0.2,0.8,0.2c0.3,0.1,0.6,0.1,0.9,0.1c0.7,0,1.3-0.2,1.9-0.5
				c1-0.6,1.4-1.6,1.4-3c0-0.8-0.1-1.5-0.4-2.1c-0.3-0.6-0.7-1.2-1.2-1.5c-0.6-0.5-1.4-0.7-2.3-0.7c-0.6,0-1.1,0.1-1.2,0.2
				C174.7,36.1,174.7,36.3,174.7,36.5z"/>
			<path d="M197.7,33l0.3,2.1l0,0.2l0,0.1c0,0.1-0.1,0.1-0.1,0.1c-0.1,0-0.2-0.1-0.3-0.4c-1.1-1.9-2.6-2.9-4.5-2.9
				c-1.5,0-2.7,0.5-3.5,1.4c-0.9,0.9-1.3,2.2-1.3,3.8c0,1.8,0.5,3.3,1.4,4.5c1,1.2,2.2,1.7,3.7,1.7c0.9,0,1.7-0.2,2.6-0.7
				c0.9-0.5,1.4-1,1.8-1.7c0.2-0.3,0.3-0.5,0.4-0.5c0.1,0,0.1,0.1,0.1,0.2l0,0.1l0,0.2l-0.2,1.1l0,0.2c0,0.2-0.2,0.3-0.4,0.5
				c-1.4,0.9-2.9,1.3-4.5,1.3c-1.9,0-3.4-0.6-4.6-1.7c-1.2-1.1-1.7-2.6-1.7-4.4c0-1.8,0.6-3.4,1.8-4.6c1.2-1.2,2.7-1.8,4.5-1.8
				c1.2,0,2.4,0.3,3.4,0.8l0.4,0.2l0.1,0.1l0.1,0.1c0,0,0.1,0,0.1-0.1c0.1-0.1,0.2-0.1,0.3-0.1C197.6,32.7,197.7,32.8,197.7,33z"/>
			<path d="M203.9,40.8h-2.2c-0.3,0-0.5,0-0.6,0.1c-0.1,0-0.2,0.2-0.3,0.5l-0.4,0.9c-0.2,0.4-0.3,0.7-0.3,0.9c0,0.2,0,0.3,0.1,0.4
				c0.1,0.1,0.3,0.2,0.6,0.2c0.1,0,0.2,0.1,0.2,0.1c0,0.1-0.1,0.1-0.2,0.1c0,0-0.1,0-0.2,0l-0.6,0c-0.2,0-0.4,0-0.7,0
				c-0.1,0-0.2,0-0.3,0c-0.2,0-0.3,0-0.3,0c-0.1,0-0.2,0-0.2-0.1c0-0.1,0-0.1,0.1-0.1l0.2-0.1c0.1,0,0.2-0.1,0.3-0.3
				c0.1-0.2,0.3-0.4,0.3-0.5l0.2-0.4l3.2-7c0.1-0.1,0.1-0.2,0.2-0.2c0.1,0,0.1,0.1,0.2,0.2l2.7,6.8l0.1,0.3c0.2,0.5,0.4,0.8,0.5,0.9
				c0.1,0.1,0.4,0.2,0.8,0.3c0.1,0,0.2,0.1,0.2,0.2c0,0.1-0.1,0.1-0.2,0.1c0,0-0.1,0-0.2,0c-0.2,0-0.6,0-1.1,0c-0.6,0-0.9,0-1.1,0
				c-0.1,0-0.2,0-0.2,0c-0.1,0-0.2,0-0.2-0.1c0-0.1,0.1-0.1,0.2-0.1l0.2,0c0.2,0,0.3-0.2,0.3-0.4c0-0.2-0.1-0.7-0.4-1.3l-0.3-0.8
				c-0.1-0.2-0.2-0.4-0.2-0.4C204.2,40.8,204.1,40.8,203.9,40.8z M203.9,39.8l-1-2.4l0-0.1c0-0.1-0.1-0.2-0.2-0.2c0,0-0.1,0-0.1,0.1
				l-1.2,2.7c-0.1,0.1-0.1,0.2-0.1,0.2c0,0.1,0.1,0.2,0.3,0.2l0.2,0h1.9c0.2,0,0.3-0.1,0.3-0.2c0,0,0-0.1,0-0.1L203.9,39.8z"/>
			<path d="M212,39.8l1.7,2.5l0.2,0.3c0.5,0.8,1,1.2,1.5,1.2l0.2,0c0.1,0,0.1,0,0.1,0.1c0,0.1-0.1,0.1-0.3,0.2
				c-0.2,0.1-0.4,0.1-0.6,0.1c-0.4,0-0.7-0.1-1-0.3c-0.3-0.2-0.6-0.5-0.9-1l-1.5-2.3l-0.1-0.1c-0.1-0.2-0.3-0.3-0.5-0.3H210l-0.1,0
				c0,0-0.1,0.1-0.1,0.2v1.9l0,0.2c0,0.4,0,0.6,0.1,0.7c0,0.1,0.1,0.2,0.2,0.3c0.2,0.1,0.5,0.2,0.8,0.3c0.1,0,0.2,0.1,0.2,0.1
				c0,0.1-0.1,0.1-0.2,0.1c-0.1,0-0.2,0-0.4,0c-0.2,0-0.4,0-0.8,0l-0.6,0l-0.3,0c-0.1,0-0.3,0-0.5,0c-0.2,0-0.3,0-0.3,0
				c-0.1,0-0.2,0-0.2-0.1c0-0.1,0.1-0.1,0.2-0.1c0.3-0.1,0.5-0.2,0.6-0.4c0.1-0.2,0.2-0.7,0.2-1.4v-4.4l0-0.6c0-0.6-0.2-1-0.7-1.1
				l-0.3,0c-0.1,0-0.2-0.1-0.2-0.1c0-0.1,0.1-0.1,0.2-0.1c0,0,0.2,0,0.4,0c0.1,0,0.3,0,0.5,0c0.2,0,0.5,0,1,0c0.3,0,0.6,0,0.9,0
				c0.9,0,1.7,0.2,2.1,0.5c0.5,0.4,0.7,0.9,0.7,1.6C213.6,38.5,213,39.3,212,39.8z M210.2,39.6h0.7c0.5,0,1-0.1,1.3-0.4
				c0.3-0.3,0.5-0.7,0.5-1.2c0-0.6-0.2-1.1-0.6-1.5c-0.4-0.4-1-0.6-1.6-0.6c-0.2,0-0.4,0-0.5,0.1c-0.1,0.1-0.1,0.2-0.1,0.4l0,0.2
				v2.5c0,0.2,0,0.3,0.1,0.4C209.9,39.6,210,39.6,210.2,39.6z"/>
			<path d="M218.1,36.5V39c0,0.2,0,0.3,0.1,0.3c0,0,0.1,0.1,0.3,0.1h0.9c0.4,0,0.8,0,1-0.1c0.2,0,0.4-0.1,0.4-0.2
				c0.1-0.1,0.1-0.2,0.2-0.5c0-0.1,0.1-0.2,0.2-0.1c0.1,0,0.1,0.1,0.1,0.2c0,0,0,0.1,0,0.1c0,0.4-0.1,0.8-0.1,1.1c0,0.2,0,0.5,0,0.7
				c0,0.1,0,0.1,0,0.2c0,0.1,0,0.2-0.1,0.2c-0.1,0-0.1,0-0.2-0.1l0-0.2c0-0.3-0.1-0.5-0.3-0.6c-0.1-0.1-0.4-0.1-0.8-0.1h-1.4
				c-0.2,0-0.3,0-0.4,0.1c-0.1,0-0.1,0.1-0.1,0.2l0,0.2v2.3c0,0.3,0.1,0.6,0.2,0.7c0.1,0.1,0.4,0.1,1,0.1c1.6,0,2.6-0.4,3.1-1.1
				c0-0.1,0.1-0.1,0.1-0.1c0.1,0,0.1,0,0.1,0.2c0,0.3-0.2,0.6-0.5,1c-0.4,0.4-0.8,0.7-1.4,0.7c-0.1,0-0.3,0-0.5,0
				c-0.8-0.1-1.4-0.1-1.9-0.1c-0.7,0-1.2,0-1.5,0.1c-0.2,0-0.3,0-0.3,0c-0.1,0-0.2,0-0.2-0.1c0-0.1,0.1-0.1,0.2-0.1l0.2-0.1
				c0.3-0.1,0.4-0.4,0.4-0.9l0-0.4v-5.2c0-0.6-0.1-1-0.2-1.2c-0.1-0.2-0.4-0.3-0.8-0.3c-0.1,0-0.2,0-0.2-0.1c0-0.1,0.1-0.2,0.3-0.2
				c0.1,0,0.2,0,0.4,0c0.6,0.1,1.3,0.1,2.1,0.1c0.5,0,0.9,0,1.3,0l0.9,0c0.2,0,0.4,0,0.4,0c0.1,0,0.2,0,0.2,0c0.1,0,0.2,0.1,0.2,0.2
				c0,0,0,0.1,0,0.1c0,0.1,0,0.2,0,0.5l0,0.4c0,0.2,0,0.4-0.1,0.4c0,0.1-0.1,0.1-0.1,0.1c-0.1,0-0.1-0.1-0.1-0.2v-0.2
				c0-0.1,0-0.3-0.1-0.4c-0.1-0.2-0.2-0.3-0.5-0.4c-0.2-0.1-0.7-0.1-1.3-0.1h-1c-0.3,0-0.4,0-0.5,0.1
				C218.1,36.2,218.1,36.3,218.1,36.5z"/>
		</g>
	</g>
	<g>
		<path d="M126.4,13.5l-9.5,2.4c-0.3,0.1-0.6,0.1-0.9,0.1c-0.3,0-0.6,0-0.9-0.1l-9.5-2.5v4.3c0,6.9,9,7,10.4,7
			c1.3,0,10.5-0.2,10.5-7L126.4,13.5L126.4,13.5z"/>
		<path d="M137.3,6.2l-21.1-4.5c-0.1,0-0.2,0-0.4,0L94.7,6.1C94.3,6.2,94,6.5,94,6.9c0,0.4,0.3,0.8,0.7,0.9l21.1,5.5
			c0.1,0,0.1,0,0.2,0c0.1,0,0.1,0,0.2,0l9.2-2.3l-8.9-2.2c-0.5-0.1-0.8-0.6-0.7-1.1c0.1-0.5,0.6-0.8,1.1-0.7l12.4,3.1l0.7,0.1v2.5
			c-0.5,0.3-0.8,0.8-0.8,1.4c0,0.5,0.3,1,0.7,1.3c-0.2,1.9-1.3,8.6-4.3,12.2c-1.1,1.3-1.3,1.9-0.5,2.4c0.9,0.6,2.3,1.1,3.1,1.3
			c0.8,0.1,2.4,0.3,3.1-1.4c0.5-1.3,2.1-7.2,0.7-14.6c0.3-0.3,0.5-0.7,0.5-1.2c0-0.6-0.3-1.1-0.8-1.4V9.5c0,0,0-0.1,0-0.1l5.6-1.4
			c0.4-0.1,0.7-0.5,0.7-0.9C138,6.7,137.7,6.3,137.3,6.2"/>
	</g>
	<g>
		<path class="st0" d="M7.6,5.6v6.1c0,0.4,0.1,0.6,0.3,0.6c0.1,0,0.4-0.2,0.8-0.5l1.6-1.5l2.3-2.1c3.1-2.8,4.6-4.6,4.6-5.6
			c0-0.3-0.1-0.6-0.4-0.8c-0.3-0.2-0.7-0.3-1.2-0.3c-0.4,0-0.5-0.2-0.5-0.5c0-0.3,0.2-0.4,0.6-0.4c0.5,0,0.9,0,1.4,0.1
			c1.2,0.1,2,0.2,2.5,0.2c0.4,0,0.8,0,1.3-0.1c1.1-0.1,1.9-0.2,2.4-0.2c0.4,0,0.6,0.2,0.6,0.5c0,0.2-0.2,0.4-0.7,0.5
			c-0.8,0.1-1.7,0.5-2.7,1.2s-2.4,1.9-4.2,3.6c-0.9,0.8-1.4,1.3-1.7,1.6c-0.9,0.8-1.4,1.4-1.4,1.8c0,0.3,0.3,0.8,0.8,1.5l1.2,1.6
			c2.8,3.8,4.8,6.4,6.1,7.7c0.9,0.9,2.1,1.6,3.7,2l0.4,0.1c0.3,0.1,0.4,0.3,0.4,0.5c0,0.3-0.2,0.4-0.5,0.4c-0.1,0-0.3,0-0.5,0
			c-1.1-0.1-2-0.2-2.8-0.2c-0.4,0-0.7,0-1.1,0.1c-0.7,0.1-1.2,0.1-1.3,0.1c-0.6,0-1.1-0.3-1.6-0.9c0-0.1-0.3-0.3-0.6-0.8
			c-1-1.1-2.2-2.7-3.7-4.7c-1.5-2-2.5-3.3-2.8-3.9c-0.3-0.5-0.6-0.8-0.8-0.8c-0.1,0-0.3,0.1-0.5,0.3L9,13.4l-0.7,0.7
			C8,14.4,7.8,14.7,7.7,15c-0.1,0.3-0.1,0.9-0.1,1.9v0.7c0,1.8,0.2,3.1,0.6,3.9c0.4,0.8,1,1.2,2,1.2c0.6,0,0.9,0.2,0.9,0.5
			c0,0.3-0.2,0.5-0.6,0.5c-0.2,0-0.6,0-1.1-0.1c-0.6-0.1-1.4-0.2-2.3-0.2c-1.3,0-2.4,0.1-3.6,0.2c-0.7,0.1-1.3,0.1-1.7,0.1
			s-0.7-0.2-0.7-0.5c0-0.2,0.1-0.4,0.4-0.4c0.8-0.1,1.4-0.5,1.7-1.1c0.3-0.6,0.5-1.6,0.5-3V5.3l0-0.7l-0.2-1
			C3.5,3.1,3.2,2.6,2.7,2.3C2.2,2,1.6,1.8,0.7,1.7c-0.3,0-0.4-0.1-0.5-0.2S0.1,1.3,0.1,1.1c0-0.3,0.2-0.4,0.5-0.4
			c0.3,0,0.6,0,0.8,0.1c1.2,0.1,2.5,0.2,4,0.2c1.3,0,2.5-0.1,3.5-0.2c0.3,0,0.5-0.1,0.7-0.1c0.3,0,0.5,0.1,0.5,0.4
			c0,0.2-0.1,0.3-0.4,0.4c-1,0.3-1.6,0.6-1.8,1C7.8,2.9,7.7,3.7,7.7,5L7.6,5.6z"/>
		<path class="st0" d="M31.3,20l0.1,1.2c0.1,0.6,0.3,1.1,0.7,1.4c0.4,0.3,0.8,0.5,1.4,0.5c0.4,0,0.6,0.1,0.6,0.4
			c0,0.2-0.3,0.3-0.8,0.3c-0.2,0-0.5,0-0.9-0.1c-1-0.1-1.8-0.2-2.5-0.2c-0.8,0-1.4,0-1.9,0.1c-0.4,0.1-0.7,0.1-0.8,0.1
			c-0.2,0-0.3-0.1-0.3-0.3l0-0.1l0.3-0.3c0.6-0.2,0.9-0.5,1.1-0.7c0.2-0.3,0.3-0.8,0.3-1.5l0-1v-9.3c0-0.7-0.1-1.2-0.4-1.5
			c-0.3-0.3-0.7-0.5-1.4-0.6c-0.4-0.1-0.7-0.1-0.8-0.2C26,8.1,25.9,8,25.9,7.9c0-0.2,0.1-0.3,0.3-0.3c0.1,0,0.4,0,0.6,0.1
			c0.3,0.1,0.8,0.1,1.4,0.1c0.4,0,1,0,1.6-0.1l0.9-0.1c0.8-0.1,1.4-0.1,1.9-0.1c0.3,0,0.4,0.1,0.4,0.3C33,8,33,8,32.9,8.1
			c0,0-0.1,0.1-0.3,0.1c-0.6,0.1-0.9,0.2-1.1,0.5c-0.2,0.2-0.2,0.7-0.2,1.3L31.3,20L31.3,20z"/>
		<path class="st0" d="M37.1,10.7c0-0.7-0.2-1.3-0.6-1.7c-0.4-0.4-1-0.6-1.8-0.6c-0.2,0-0.4-0.1-0.4-0.3c0-0.1,0.1-0.2,0.2-0.3
			c0.1,0,0.3-0.1,0.7-0.1l1.8,0c0.4,0,0.8,0,1.1,0c0.5,0,1.2-0.1,2-0.2c1.2-0.1,2.1-0.2,2.8-0.2c2.6,0,4.8,0.7,6.4,2
			c1.6,1.4,2.4,3.2,2.4,5.4c0,2.9-1.1,5.2-3.2,6.9C46.8,23,45,23.6,43,23.6c-0.3,0-1,0-2-0.1c-0.6,0-1.1,0-1.7,0
			c-1.4,0-2.3,0-2.8,0.1c-0.4,0.1-0.6,0.1-0.7,0.1c-0.2,0-0.3-0.1-0.3-0.3c0-0.2,0.1-0.3,0.3-0.3c0.5-0.1,0.8-0.3,1-0.6
			c0.2-0.3,0.3-0.8,0.3-1.6L37.1,10.7L37.1,10.7z M39.8,10.1v10.3l0.1,1.1c0.3,0.9,1.2,1.4,2.9,1.4c1.8,0,3.2-0.6,4.3-1.9
			c1.1-1.3,1.6-2.9,1.6-5.1c0-2.2-0.6-4.1-1.9-5.5c-1.3-1.4-2.9-2.1-4.9-2.1c-0.8,0-1.4,0.1-1.7,0.3C39.9,8.7,39.8,9.2,39.8,10.1z"
			/>
		<path class="st0" d="M54.7,10.7c0-0.7-0.2-1.3-0.6-1.7c-0.4-0.4-1-0.6-1.8-0.6C52.1,8.4,52,8.3,52,8c0-0.1,0.1-0.2,0.2-0.3
			c0.1,0,0.3-0.1,0.7-0.1l1.8,0c0.4,0,0.8,0,1.1,0c0.5,0,1.2-0.1,2-0.2c1.2-0.1,2.1-0.2,2.8-0.2c2.6,0,4.8,0.7,6.4,2
			c1.6,1.4,2.4,3.2,2.4,5.4c0,2.9-1.1,5.2-3.2,6.9c-1.6,1.3-3.4,1.9-5.3,1.9c-0.3,0-1,0-2-0.1c-0.6,0-1.1,0-1.7,0
			c-1.4,0-2.3,0-2.8,0.1c-0.4,0.1-0.6,0.1-0.7,0.1c-0.2,0-0.3-0.1-0.3-0.3c0-0.2,0.1-0.3,0.3-0.3c0.5-0.1,0.8-0.3,1-0.6
			c0.2-0.3,0.3-0.8,0.3-1.6L54.7,10.7L54.7,10.7z M57.4,10.1v10.3l0.1,1.1c0.3,0.9,1.2,1.4,2.9,1.4c1.8,0,3.2-0.6,4.3-1.9
			c1.1-1.3,1.6-2.9,1.6-5.1c0-2.2-0.6-4.1-1.9-5.5c-1.3-1.4-2.9-2.1-4.9-2.1c-0.8,0-1.4,0.1-1.7,0.3C57.5,8.7,57.4,9.2,57.4,10.1z"
			/>
		<path class="st0" d="M75,20l0.1,1.2c0.1,0.6,0.3,1.1,0.7,1.4c0.4,0.3,0.8,0.5,1.4,0.5c0.4,0,0.6,0.1,0.6,0.4
			c0,0.2-0.3,0.3-0.8,0.3c-0.2,0-0.5,0-0.9-0.1c-1-0.1-1.8-0.2-2.5-0.2c-0.8,0-1.4,0-1.9,0.1c-0.4,0.1-0.7,0.1-0.8,0.1
			c-0.2,0-0.3-0.1-0.3-0.3l0-0.1l0.3-0.3c0.6-0.2,0.9-0.5,1.1-0.7c0.2-0.3,0.3-0.8,0.3-1.5l0-1v-9.3c0-0.7-0.1-1.2-0.4-1.5
			c-0.3-0.3-0.7-0.5-1.4-0.6c-0.4-0.1-0.7-0.1-0.8-0.2c-0.1-0.1-0.2-0.2-0.2-0.3c0-0.2,0.1-0.3,0.3-0.3c0.1,0,0.4,0,0.6,0.1
			c0.3,0.1,0.8,0.1,1.4,0.1c0.4,0,1,0,1.6-0.1l0.9-0.1c0.8-0.1,1.4-0.1,1.9-0.1c0.3,0,0.4,0.1,0.4,0.3c0,0.1,0,0.2-0.1,0.3
			c0,0-0.1,0.1-0.3,0.1c-0.6,0.1-0.9,0.2-1.1,0.5C75.1,8.9,75,9.3,75,10L75,20L75,20z"/>
		<path class="st0" d="M82.9,10.3v2.5c0,0.7,0.1,1.2,0.2,1.4c0.1,0.2,0.4,0.3,0.8,0.3l0.4,0l0.5,0h1c0.8,0,1.4-0.4,1.8-1.3l0.3-0.6
			c0.1-0.1,0.2-0.2,0.4-0.2c0.2,0,0.3,0.1,0.3,0.3c0,0.1,0,0.2,0,0.5c0,0.2,0,0.4,0,0.5c0,0.3,0,0.8,0.1,1.8c0,0.6,0.1,1.1,0.1,1.6
			l0,0.6c0,0.1,0,0.2,0,0.2c0,0-0.1,0.1-0.2,0.1c-0.2,0-0.3-0.1-0.4-0.4c-0.1-0.7-0.3-1.2-0.7-1.5c-0.2-0.2-0.5-0.3-0.7-0.4
			s-0.8-0.1-1.6-0.1H84c-0.4,0-0.6,0.1-0.8,0.2c-0.1,0.1-0.2,0.3-0.3,0.7c0,0.4-0.1,1-0.1,1.8v1.1c0,1.1,0.1,1.9,0.3,2.4
			c0.1,0.4,0.3,0.6,0.5,0.7c0.2,0.1,0.5,0.2,0.8,0.2c3.2,0,5.2-1,6.2-2.9c0.1-0.1,0.1-0.1,0.1-0.2c0.1,0,0.2,0,0.2,0.1
			c0.1,0.1,0.1,0.2,0.1,0.3c0,0.8-0.2,1.5-0.6,2.2c-0.3,0.6-0.8,1-1.3,1.3c-0.5,0.3-1.2,0.4-2.1,0.4c-0.5,0-1.1,0-1.7-0.1l-1.4-0.1
			c-0.5,0-1.2-0.1-2-0.1c-0.6,0-1.4,0-2.6,0.1c-0.3,0-0.6,0-0.7,0c-0.2,0-0.3-0.1-0.3-0.3c0-0.1,0.1-0.3,0.3-0.3
			c0.4-0.2,0.7-0.4,0.9-0.5c0.2-0.2,0.3-0.5,0.4-1c0.1-0.4,0.1-1,0.1-1.7v-9.3c0-0.9-0.1-1.5-0.4-1.8c-0.3-0.3-0.9-0.5-1.8-0.7
			c-0.2,0-0.3-0.1-0.3-0.3c0-0.2,0.1-0.3,0.4-0.3c0.1,0,0.2,0,0.4,0c0.1,0,0.3,0,0.6,0l1.2,0l4.4,0c2.6,0,4.1,0,4.7-0.1
			c0.1,0,0.1,0,0.2,0c0.2,0,0.3,0.1,0.3,0.4c0,0.2,0,0.5,0.1,1C90,9.6,90,10.1,90,10.3c0,0.6-0.2,0.9-0.5,0.9
			c-0.1,0-0.2-0.2-0.2-0.5c0-0.8-0.3-1.3-0.9-1.7c-0.6-0.3-1.5-0.5-2.7-0.5h-1.4l-0.8,0.1c-0.4,0.1-0.6,0.5-0.6,1.2L82.9,10.3z"/>
	</g>
	<path class="st1" d="M152.3,2.6l7.6,17.5c0.4,0.9,0.8,1.5,1.3,2c0.5,0.4,1.2,0.7,2,0.9c0.2,0,0.3,0.2,0.3,0.5
		c0,0.3-0.1,0.5-0.4,0.4c-0.1,0-0.4,0-0.6-0.1c-0.9-0.2-2.2-0.3-4.2-0.3c-1.9,0-3.2,0.1-3.9,0.3c-0.2,0-0.3,0.1-0.4,0.1
		c-0.3,0-0.5-0.2-0.5-0.5c0-0.2,0.1-0.3,0.4-0.4c0.5-0.2,1-0.4,1.3-0.8c0.4-0.4,0.5-0.8,0.5-1.3c0-0.6-0.5-2-1.5-4.1
		c-0.3-0.6-0.6-1-1-1.1c-0.4-0.1-1.6-0.1-3.8-0.1h-2.3l-1.5,0.3c-0.4,0.2-0.9,0.9-1.4,2.2l-0.5,1.3c-0.2,0.4-0.2,0.7-0.2,1.1
		c0,1.4,1,2.2,2.9,2.4c0.4,0.1,0.6,0.2,0.6,0.5c0,0.3-0.2,0.4-0.6,0.4c-0.2,0-0.5,0-0.9-0.1c-0.7-0.1-1.4-0.2-2-0.2
		c-0.5,0-1.4,0.1-2.6,0.2c-0.9,0.1-1.4,0.1-1.6,0.1c-0.3,0-0.5-0.1-0.5-0.4c0-0.2,0.2-0.4,0.5-0.5c0.6-0.2,1.1-0.5,1.4-1
		c0.4-0.5,0.9-1.6,1.6-3.2L147.1,8c0.4-0.8,0.6-1.4,0.8-1.7l1.6-3.2l0.8-1.6v0.1c0.4-0.8,0.6-1.3,0.7-1.3c0.2,0,0.5,0.5,0.9,1.4
		L152.3,2.6z M152.9,13.1L150.8,8c-0.5-1.2-0.9-1.8-1.1-1.8c-0.1,0-0.4,0.4-0.7,1.2L148.6,8l-2,4.5l-0.2,0.4
		c-0.1,0.2-0.1,0.3-0.1,0.4c0,0.4,0.4,0.6,1.2,0.6h4.9c0.4,0,0.6-0.1,0.6-0.4c0-0.1,0-0.2-0.1-0.3L152.9,13.1z"/>
	<path class="st1" d="M170.6,7.3c1.5,0,2.7,0.3,3.8,0.9l0.8,0.4c0.2,0.1,0.3,0.1,0.4,0.1c0.2,0,0.3-0.1,0.4-0.2l0.2-0.4
		c0-0.1,0.1-0.1,0.2-0.1c0.2,0,0.4,0.3,0.4,0.8l0,0.9v1.1l0.1,0.9l0.1,0.5c0,0.3,0.1,0.5,0.1,0.7c0,0.3-0.1,0.4-0.3,0.4
		c-0.1,0-0.2-0.1-0.2-0.3c-0.1-0.3-0.3-0.8-0.7-1.4c-0.4-0.6-0.7-1.1-1.1-1.5c-1.4-1.5-2.9-2.2-4.5-2.2c-1.5,0-2.7,0.6-3.6,1.8
		c-0.9,1.2-1.4,2.8-1.4,4.7c0,2.5,0.8,4.5,2.3,6.1c1.1,1.1,2.4,1.7,3.7,1.7c0.8,0,1.6-0.2,2.5-0.6c0.9-0.4,1.6-0.8,2.1-1.4l0.8-0.8
		c0.1-0.1,0.2-0.2,0.3-0.2c0.1,0,0.2,0.1,0.2,0.3c0,0.3-0.3,0.8-0.9,1.5c-1.6,1.8-3.6,2.7-6,2.7c-2.3,0-4.2-0.7-5.6-2.2
		s-2.2-3.4-2.2-5.7c0-1.3,0.3-2.6,0.8-3.8c0.5-1.2,1.3-2.2,2.2-3C166.9,7.9,168.7,7.3,170.6,7.3z"/>
	<path class="st1" d="M185.6,8.9l5.3,12.2c0.3,0.6,0.6,1.1,0.9,1.4c0.4,0.3,0.8,0.5,1.4,0.6c0.1,0,0.2,0.1,0.2,0.3
		c0,0.2-0.1,0.3-0.3,0.3c-0.1,0-0.3,0-0.4-0.1c-0.6-0.1-1.6-0.2-2.9-0.2c-1.3,0-2.3,0.1-2.7,0.2c-0.1,0-0.2,0-0.3,0
		c-0.2,0-0.3-0.1-0.3-0.3c0-0.1,0.1-0.2,0.3-0.3c0.4-0.1,0.7-0.3,0.9-0.6c0.2-0.3,0.4-0.6,0.4-0.9c0-0.4-0.3-1.4-1-2.9
		c-0.2-0.5-0.4-0.7-0.7-0.8c-0.3-0.1-1.2-0.1-2.7-0.1h-1.6l-1.1,0.2c-0.3,0.1-0.6,0.6-1,1.5l-0.4,0.9c-0.1,0.3-0.2,0.5-0.2,0.8
		c0,1,0.7,1.6,2.1,1.7c0.3,0,0.4,0.2,0.4,0.3c0,0.2-0.2,0.3-0.4,0.3c-0.1,0-0.3,0-0.6-0.1c-0.5-0.1-1-0.2-1.4-0.2
		c-0.4,0-1,0-1.8,0.1c-0.6,0.1-1,0.1-1.1,0.1c-0.2,0-0.3-0.1-0.3-0.3c0-0.2,0.1-0.3,0.3-0.4c0.4-0.1,0.8-0.4,1-0.7
		c0.3-0.4,0.6-1.1,1.1-2.2l3.2-7.4c0.3-0.6,0.4-1,0.5-1.2l1.1-2.2l0.6-1.1v0c0.2-0.6,0.4-0.9,0.5-0.9c0.1,0,0.3,0.3,0.6,1L185.6,8.9
		z M186.1,16.2l-1.5-3.6c-0.4-0.9-0.6-1.3-0.8-1.3c-0.1,0-0.3,0.3-0.5,0.8l-0.2,0.5l-1.4,3.1l-0.1,0.3c-0.1,0.1-0.1,0.2-0.1,0.3
		c0,0.3,0.3,0.4,0.8,0.4h3.5c0.3,0,0.4-0.1,0.4-0.2c0,0,0-0.1-0.1-0.2L186.1,16.2z"/>
	<path class="st1" d="M195.5,10.7c0-0.7-0.2-1.3-0.6-1.7c-0.4-0.4-1-0.6-1.8-0.6c-0.2,0-0.4-0.1-0.4-0.3c0-0.1,0.1-0.2,0.2-0.3
		c0.1,0,0.3-0.1,0.7-0.1l1.8,0c0.4,0,0.8,0,1.1,0c0.5,0,1.2-0.1,2-0.2c1.2-0.1,2.1-0.2,2.8-0.2c2.6,0,4.8,0.7,6.4,2
		c1.6,1.4,2.4,3.2,2.4,5.4c0,2.9-1.1,5.2-3.2,6.9c-1.6,1.3-3.4,1.9-5.3,1.9c-0.3,0-1,0-2-0.1c-0.6,0-1.1,0-1.7,0
		c-1.4,0-2.3,0-2.8,0.1c-0.4,0.1-0.6,0.1-0.7,0.1c-0.2,0-0.3-0.1-0.3-0.3c0-0.2,0.1-0.3,0.3-0.3c0.5-0.1,0.8-0.3,1-0.6
		s0.3-0.8,0.3-1.6L195.5,10.7L195.5,10.7z M198.2,10.1v10.3l0.1,1.1c0.3,0.9,1.2,1.4,2.9,1.4c1.8,0,3.2-0.6,4.3-1.9
		c1.1-1.3,1.6-2.9,1.6-5.1c0-2.2-0.6-4.1-1.9-5.5c-1.3-1.4-2.9-2.1-4.9-2.1c-0.8,0-1.4,0.1-1.7,0.3C198.3,8.7,198.2,9.2,198.2,10.1z
		"/>
	<path class="st1" d="M215.8,10.3v2.5c0,0.7,0.1,1.2,0.2,1.4c0.1,0.2,0.4,0.3,0.8,0.3l0.4,0l0.5,0h1c0.8,0,1.4-0.4,1.8-1.3l0.3-0.6
		c0.1-0.1,0.2-0.2,0.4-0.2c0.2,0,0.3,0.1,0.3,0.3c0,0.1,0,0.2,0,0.5c0,0.2,0,0.4,0,0.5c0,0.3,0,0.8,0.1,1.8c0,0.6,0.1,1.1,0.1,1.6
		l0,0.6c0,0.1,0,0.2,0,0.2c0,0-0.1,0.1-0.2,0.1c-0.2,0-0.3-0.1-0.4-0.4c-0.1-0.7-0.3-1.2-0.7-1.5c-0.2-0.2-0.5-0.3-0.7-0.4
		c-0.3-0.1-0.8-0.1-1.6-0.1h-0.8c-0.4,0-0.6,0.1-0.8,0.2s-0.2,0.3-0.3,0.7c0,0.4-0.1,1-0.1,1.8v1.1c0,1.1,0.1,1.9,0.3,2.4
		c0.1,0.4,0.3,0.6,0.5,0.7c0.2,0.1,0.5,0.2,0.8,0.2c3.2,0,5.2-1,6.2-2.9c0.1-0.1,0.1-0.1,0.1-0.2c0.1,0,0.2,0,0.2,0.1
		c0.1,0.1,0.1,0.2,0.1,0.3c0,0.8-0.2,1.5-0.6,2.2c-0.3,0.6-0.8,1-1.3,1.3c-0.5,0.3-1.2,0.4-2.1,0.4c-0.5,0-1.1,0-1.7-0.1l-1.4-0.1
		c-0.5,0-1.2-0.1-2-0.1c-0.6,0-1.4,0-2.6,0.1c-0.3,0-0.6,0-0.7,0c-0.2,0-0.3-0.1-0.3-0.3c0-0.1,0.1-0.3,0.3-0.3
		c0.4-0.2,0.7-0.4,0.9-0.5c0.2-0.2,0.3-0.5,0.4-1c0.1-0.4,0.1-1,0.1-1.7v-9.3c0-0.9-0.1-1.5-0.4-1.8c-0.3-0.3-0.9-0.5-1.8-0.7
		c-0.2,0-0.3-0.1-0.3-0.3c0-0.2,0.1-0.3,0.4-0.3c0.1,0,0.2,0,0.4,0c0.1,0,0.3,0,0.6,0l1.2,0l4.4,0c2.6,0,4.1,0,4.7-0.1
		c0.1,0,0.1,0,0.2,0c0.2,0,0.3,0.1,0.3,0.4c0,0.2,0,0.5,0.1,1c0.1,0.7,0.1,1.2,0.1,1.5c0,0.6-0.2,0.9-0.5,0.9
		c-0.1,0-0.2-0.2-0.2-0.5c0-0.8-0.3-1.3-0.8-1.7c-0.6-0.3-1.5-0.5-2.7-0.5h-1.4l-0.8,0.1c-0.4,0.1-0.6,0.5-0.6,1.2L215.8,10.3z"/>
	<path class="st1" d="M229,8.3l4.8,10.5c0.2,0.5,0.4,0.7,0.5,0.7c0.1,0,0.3-0.2,0.4-0.5l4.4-9.4c0.4-0.9,0.7-1.4,0.9-1.7
		c0.2-0.2,0.4-0.3,0.7-0.3c0.1,0,0.3,0,0.5,0c0.2,0,0.5,0,0.7,0c0.3,0,0.7,0,1.2-0.1c0.2,0,0.4,0,0.5,0c0.3,0,0.4,0.1,0.4,0.3
		c0,0.2-0.1,0.3-0.3,0.3c-0.7,0.1-1.2,0.3-1.5,0.7c-0.3,0.4-0.4,1.2-0.4,2.2l0,0.8l0.3,7.3l0,0.5c0,1.1,0.2,1.9,0.6,2.4
		c0.4,0.5,1,0.8,1.9,0.9c0.2,0,0.3,0.1,0.3,0.3c0,0.2-0.3,0.3-0.8,0.3c-0.2,0-0.4,0-0.8-0.1c-1-0.1-1.6-0.2-2-0.2
		c-0.8,0-1.5,0-2.1,0.1c-0.5,0.1-0.9,0.1-1.1,0.1c-0.2,0-0.3-0.1-0.3-0.3c0-0.2,0.1-0.3,0.3-0.3c0.4-0.1,0.8-0.3,0.9-0.6
		c0.2-0.3,0.3-0.7,0.3-1.2c0-0.3,0-0.4,0-0.6l-0.3-7.8c0-0.2-0.1-0.3-0.2-0.3c-0.1,0-0.3,0.2-0.5,0.6l-4.4,9.4l-0.2,0.4
		c-0.2,0.5-0.4,0.7-0.6,0.7c-0.2,0-0.5-0.4-0.9-1.3l-0.6-1.2l-3.8-8.4l-0.1-0.2c0-0.1-0.1-0.1-0.1-0.1c-0.1,0-0.2,0.2-0.2,0.5l0,0.4
		l-0.2,5.9l0,0.5l0.1,1.1c0.2,1.1,0.8,1.9,1.8,2.1c0.4,0.1,0.5,0.2,0.5,0.4c0,0.2-0.1,0.3-0.4,0.3c-0.2,0-0.5,0-0.8-0.1l-0.8-0.1
		c-0.2,0-0.5,0-0.9,0c-0.7,0-1.3,0-1.7,0.1c-0.3,0.1-0.5,0.1-0.6,0.1c-0.2,0-0.4-0.1-0.4-0.3c0-0.1,0.1-0.2,0.3-0.3
		c0.6-0.2,1-0.6,1.3-1.1c0.3-0.5,0.4-1.2,0.4-2.2l0.3-7.7l0-0.8c0-0.9-0.2-1.7-0.7-2.2c-0.5-0.5-1.1-0.8-1.9-0.8
		c-0.3,0-0.4-0.1-0.4-0.3c0-0.2,0.2-0.3,0.5-0.3c0.1,0,0.2,0,0.3,0l0.7,0c0.1,0,0.3,0,0.5,0c0.4,0,0.7,0,1.1-0.1
		c0.5-0.1,0.9-0.1,1-0.1C228.4,7.6,228.8,7.8,229,8.3z"/>
	<path class="st1" d="M254.5,17.3v3.5l0.1,0.8c0.1,0.9,0.9,1.4,2.3,1.4c0.2,0,0.4,0.1,0.4,0.3c0,0.2-0.2,0.3-0.5,0.3
		c-0.2,0-0.4,0-0.6,0l-1.7-0.1c-0.3,0-0.8,0-1.4,0c-1.5,0-2.4,0-2.9,0.1c-0.3,0.1-0.6,0.1-0.7,0.1c-0.2,0-0.3-0.1-0.3-0.4
		c0-0.1,0.1-0.2,0.3-0.3c0.9-0.1,1.5-0.4,1.8-0.8c0.3-0.4,0.5-1.2,0.5-2.2v-2.2c0-0.5-0.2-1.1-0.5-1.6c-0.4-0.7-0.9-1.5-1.3-2.4
		l-1.8-3.3c-0.7-1.3-1.5-2.1-2.5-2.2c-0.3,0-0.4-0.1-0.4-0.3c0-0.2,0.1-0.4,0.3-0.4c0.2,0,0.5,0,0.9,0.1c0.8,0.1,1.6,0.1,2.3,0.1
		c0.6,0,1.3,0,1.9-0.1c0.5,0,0.8-0.1,1-0.1c0.3,0,0.5,0.1,0.5,0.3c0,0.2-0.1,0.3-0.4,0.3c-0.6,0.1-0.9,0.4-0.9,0.8
		c0,0.3,0.3,1,0.9,2.2l0.9,1.8c0.4,0.7,0.6,1.2,0.7,1.4c0.3,0.5,0.5,0.8,0.8,0.8c0.2,0,0.6-0.4,1-1.2c0.1-0.2,0.4-0.7,0.8-1.4
		c0.9-1.5,1.3-2.5,1.3-2.9c0-0.3-0.2-0.6-0.6-0.9c-0.4-0.3-0.8-0.5-1.3-0.5c-0.3,0-0.4-0.1-0.4-0.3c0-0.2,0.1-0.4,0.3-0.4
		c0.2,0,0.4,0,0.6,0l0.8,0.1c0.3,0,0.7,0.1,1.2,0.1c0.3,0,0.5,0,0.9,0l1-0.1c0.3,0,0.6,0,0.9,0c0.2,0,0.3,0.1,0.3,0.3
		c0,0.2-0.1,0.3-0.4,0.3c-0.6,0.1-1.1,0.4-1.4,0.8c-0.4,0.4-0.8,1.1-1.4,2.2c-1,1.9-1.9,3.5-2.7,4.8c-0.2,0.2-0.3,0.4-0.3,0.6
		C254.5,16.7,254.5,17,254.5,17.3z"/>
	<g>
		<path d="M262.1,21.7c0.4,0,0.8,0.1,1.2,0.3c0.4,0.2,0.7,0.5,0.9,0.9c0.2,0.4,0.3,0.8,0.3,1.2c0,0.4-0.1,0.8-0.3,1.2
			c-0.2,0.4-0.5,0.7-0.9,0.9c-0.4,0.2-0.8,0.3-1.2,0.3c-0.4,0-0.8-0.1-1.2-0.3c-0.4-0.2-0.7-0.5-0.9-0.9c-0.2-0.4-0.3-0.8-0.3-1.2
			c0-0.4,0.1-0.8,0.3-1.2c0.2-0.4,0.5-0.7,0.9-0.9C261.3,21.8,261.7,21.7,262.1,21.7z M262.1,22.1c-0.3,0-0.7,0.1-1,0.3
			c-0.3,0.2-0.6,0.4-0.7,0.7c-0.2,0.3-0.3,0.6-0.3,1c0,0.3,0.1,0.7,0.3,1c0.2,0.3,0.4,0.6,0.7,0.7c0.3,0.2,0.6,0.3,1,0.3
			c0.3,0,0.7-0.1,1-0.3c0.3-0.2,0.6-0.4,0.7-0.7c0.2-0.3,0.3-0.6,0.3-1c0-0.3-0.1-0.7-0.3-1c-0.2-0.3-0.4-0.6-0.7-0.7
			C262.7,22.2,262.4,22.1,262.1,22.1z M261,25.4v-2.5h0.9c0.3,0,0.5,0,0.6,0.1c0.1,0,0.2,0.1,0.3,0.2c0.1,0.1,0.1,0.2,0.1,0.4
			c0,0.2-0.1,0.3-0.2,0.5s-0.3,0.2-0.5,0.2c0.1,0,0.2,0.1,0.2,0.1c0.1,0.1,0.2,0.3,0.4,0.5l0.3,0.5h-0.5l-0.2-0.4
			c-0.2-0.3-0.3-0.5-0.4-0.6c-0.1-0.1-0.2-0.1-0.3-0.1h-0.2v1.1L261,25.4L261,25.4z M261.5,23.9h0.5c0.2,0,0.4,0,0.5-0.1
			c0.1-0.1,0.1-0.2,0.1-0.3c0-0.1,0-0.1-0.1-0.2c0-0.1-0.1-0.1-0.2-0.1c-0.1,0-0.2,0-0.4,0h-0.5V23.9L261.5,23.9z"/>
	</g>
</g>
</svg>
